<svg width="14" height="14" viewBox="0 0 14 14" fill="none" xmlns="http://www.w3.org/2000/svg">
<path d="M7 12.7881C9.99707 12.7881 12.4785 10.3013 12.4785 7.30957C12.4785 4.3125 9.9917 1.83105 6.99463 1.83105C4.00293 1.83105 1.52148 4.3125 1.52148 7.30957C1.52148 10.3013 4.0083 12.7881 7 12.7881ZM7 11.875C4.46484 11.875 2.43994 9.84473 2.43994 7.30957C2.43994 4.77441 4.45947 2.74414 6.99463 2.74414C9.52979 2.74414 11.5601 4.77441 11.5654 7.30957C11.5708 9.84473 9.53516 11.875 7 11.875ZM4.19092 7.88965H6.99463C7.2041 7.88965 7.37061 7.72852 7.37061 7.51367V3.89355C7.37061 3.68408 7.2041 3.52295 6.99463 3.52295C6.78516 3.52295 6.62402 3.68408 6.62402 3.89355V7.14307H4.19092C3.97607 7.14307 3.81494 7.3042 3.81494 7.51367C3.81494 7.72852 3.97607 7.88965 4.19092 7.88965Z" fill="#007AFF"/>
</svg>
