<svg width="12" height="12" viewBox="0 0 12 12" fill="none" xmlns="http://www.w3.org/2000/svg">
<path d="M0.5 6.11621C0.5 7.62549 1.1123 8.99512 2.09521 9.98877C2.16504 10.0532 2.24023 10.0532 2.29932 9.97803L2.54102 9.70947C2.60547 9.63428 2.6001 9.56982 2.53564 9.5C1.68701 8.62451 1.15527 7.42676 1.15527 6.11621C1.15527 3.47363 3.34668 1.27686 6 1.27686C8.65332 1.27686 10.8447 3.47363 10.8447 6.11621C10.8447 7.42676 10.313 8.62451 9.46436 9.5C9.3999 9.56982 9.39453 9.63428 9.45898 9.70947L9.70068 9.97803C9.75977 10.0532 9.83496 10.0532 9.90479 9.9834C10.8877 8.99512 11.5 7.62549 11.5 6.11621C11.5 3.10303 9.03467 0.616211 6 0.616211C2.96533 0.616211 0.5 3.10303 0.5 6.11621ZM2.06299 6.11621C2.06299 7.1582 2.46582 8.09814 3.13184 8.80713C3.20166 8.88232 3.27686 8.87695 3.34131 8.80713L3.58301 8.53857C3.65283 8.46875 3.64209 8.4043 3.57764 8.3291C3.0459 7.74365 2.72363 6.97021 2.72363 6.11621C2.72363 4.32764 4.20068 2.83984 6 2.83984C7.79932 2.83984 9.27637 4.32764 9.27637 6.11621C9.27637 6.97021 8.9541 7.74365 8.42236 8.32373C8.35791 8.39893 8.34717 8.46875 8.41699 8.5332L8.66406 8.80713C8.72314 8.87695 8.80371 8.88232 8.86816 8.80713C9.52881 8.09814 9.93701 7.1582 9.93701 6.11621C9.93701 3.95703 8.16992 2.1792 6 2.1792C3.83008 2.1792 2.06299 3.95703 2.06299 6.11621ZM3.62598 6.11621C3.62598 6.68555 3.82471 7.20654 4.16846 7.62549C4.22754 7.69531 4.30273 7.69531 4.37256 7.62012L4.625 7.3623C4.68945 7.29248 4.68408 7.22266 4.63574 7.14746C4.41553 6.86279 4.28662 6.50293 4.28662 6.11621C4.28662 5.18164 5.06543 4.40283 6 4.40283C6.93457 4.40283 7.71338 5.18164 7.71338 6.11621C7.71338 6.50293 7.58447 6.86279 7.36426 7.14746C7.31055 7.22266 7.30518 7.29248 7.375 7.3623L7.62744 7.62549C7.69189 7.69531 7.77246 7.70068 7.83154 7.62012C8.17529 7.20654 8.37402 6.68555 8.37402 6.11621C8.37402 4.81641 7.30518 3.74219 6 3.74219C4.69482 3.74219 3.62598 4.81641 3.62598 6.11621ZM2.5249 10.9932C2.3584 11.1704 2.46045 11.439 2.71289 11.439H9.27637C9.52881 11.439 9.63086 11.1704 9.46973 10.9932L6.22559 7.32471C6.09668 7.19043 5.89258 7.19043 5.76367 7.32471L2.5249 10.9932Z" fill="#007AFF"/>
</svg>
