<svg width="11" height="12" viewBox="0 0 11 12" fill="none" xmlns="http://www.w3.org/2000/svg">
<path d="M9.08203 4.12354C10.0972 4.12354 10.9404 3.28027 10.9404 2.25977C10.9404 1.23926 10.0972 0.395996 9.08203 0.395996C8.05615 0.395996 7.21826 1.23926 7.21826 2.25977C7.21826 3.28027 8.05615 4.12354 9.08203 4.12354ZM0.0478516 8.38281C0.0478516 9.30127 0.128418 10.064 0.67627 10.6118C1.22412 11.1597 1.99756 11.2456 2.91064 11.2456H7.08398C8.00244 11.2456 8.77588 11.1597 9.32373 10.6118C9.87158 10.064 9.95215 9.30127 9.95215 8.38281V4.7251C9.71582 4.80566 9.45801 4.84863 9.18945 4.83789C9.15186 4.84863 9.125 4.84863 9.0874 4.854V8.52783C9.0874 9.08643 9.01758 9.65576 8.68994 9.9834C8.36768 10.3057 7.7876 10.3809 7.23438 10.3809H2.76562C2.2124 10.3809 1.63232 10.3057 1.30469 9.9834C0.982422 9.65576 0.912598 9.08643 0.912598 8.52783V4.11816C0.912598 3.5542 0.982422 2.97412 1.30469 2.65186C1.63232 2.32422 2.21777 2.25439 2.78174 2.25439H6.48779C6.48779 2.2168 6.49316 2.18457 6.49854 2.15234C6.48779 1.88379 6.53076 1.62598 6.61133 1.38965H2.8999C1.99756 1.38965 1.22412 1.47559 0.67627 2.02344C0.128418 2.57129 0.0478516 3.33936 0.0478516 4.23633V8.38281Z" fill="#007AFF"/>
</svg>
