<svg width="12" height="12" viewBox="0 0 12 12" fill="none" xmlns="http://www.w3.org/2000/svg">
<path d="M6 11.7881C8.99707 11.7881 11.4785 9.30127 11.4785 6.30957C11.4785 3.3125 8.9917 0.831055 5.99463 0.831055C3.00293 0.831055 0.521484 3.3125 0.521484 6.30957C0.521484 9.30127 3.0083 11.7881 6 11.7881ZM6 10.875C3.46484 10.875 1.43994 8.84473 1.43994 6.30957C1.43994 3.77441 3.45947 1.74414 5.99463 1.74414C8.52979 1.74414 10.5601 3.77441 10.5654 6.30957C10.5708 8.84473 8.53516 10.875 6 10.875ZM6 3.57568C5.76904 3.57568 5.59717 3.74219 5.59717 3.97852V6.66406L5.64014 7.79736L5.10303 7.15283L4.46387 6.5083C4.38867 6.43848 4.29199 6.39014 4.1792 6.39014C3.95898 6.39014 3.79248 6.56201 3.79248 6.77686C3.79248 6.88965 3.82471 6.98633 3.89453 7.05615L5.68848 8.84473C5.7959 8.95215 5.88721 8.99512 6 8.99512C6.11816 8.99512 6.21484 8.94678 6.31689 8.84473L8.10547 7.05615C8.17529 6.98633 8.21826 6.88965 8.21826 6.77686C8.21826 6.56201 8.04639 6.39014 7.82617 6.39014C7.70801 6.39014 7.61133 6.43311 7.5415 6.5083L6.90771 7.15283L6.35986 7.80273L6.40283 6.66406V3.97852C6.40283 3.74219 6.23633 3.57568 6 3.57568Z" fill="#007AFF"/>
</svg>
