<svg width="14" height="10" viewBox="0 0 14 10" fill="none" xmlns="http://www.w3.org/2000/svg">
<path d="M2.354 9.90186H11.646C12.7739 9.90186 13.3325 9.34326 13.3325 8.23682V5.05713C13.3325 4.57373 13.2681 4.33203 13.0264 4.03662L11.1733 1.74316C10.5449 0.969727 10.2656 0.733398 9.30957 0.733398H4.69043C3.73438 0.733398 3.46045 0.969727 2.83203 1.74316L0.973633 4.03662C0.737305 4.33203 0.66748 4.57373 0.66748 5.05713V8.23682C0.66748 9.34863 1.23145 9.90186 2.354 9.90186ZM7 6.46973C6.24268 6.46973 5.75391 5.80908 5.75391 5.18604V5.16992C5.75391 4.94434 5.61963 4.73486 5.34033 4.73486H1.80078C1.62354 4.73486 1.58594 4.5791 1.67725 4.46631L3.66992 1.95264C3.93311 1.61963 4.23389 1.48535 4.62598 1.48535H9.37402C9.76611 1.48535 10.0669 1.61963 10.3301 1.95264L12.3281 4.46631C12.4141 4.5791 12.3818 4.73486 12.2046 4.73486H8.65967C8.38037 4.73486 8.25146 4.94434 8.25146 5.16992V5.18604C8.25146 5.80908 7.7627 6.46973 7 6.46973ZM2.36475 9.03711C1.82764 9.03711 1.53223 8.75244 1.53223 8.19385V5.51904H4.9375C5.06641 6.52344 5.90967 7.26465 7 7.26465C8.09033 7.26465 8.93359 6.51807 9.0625 5.51904H12.4678V8.19385C12.4678 8.75244 12.167 9.03711 11.6353 9.03711H2.36475Z" fill="#007AFF"/>
</svg>
