<svg width="14" height="11" viewBox="0 0 14 11" fill="none" xmlns="http://www.w3.org/2000/svg">
<path d="M2.354 10.2617H11.646C12.7739 10.2617 13.3325 9.70312 13.3325 8.59668V2.03857C13.3325 0.932129 12.7739 0.373535 11.646 0.373535H2.354C1.23145 0.373535 0.66748 0.926758 0.66748 2.03857V8.59668C0.66748 9.7085 1.23145 10.2617 2.354 10.2617ZM1.53223 2.08154C1.53223 1.52295 1.82764 1.23828 2.36475 1.23828H11.6353C12.167 1.23828 12.4678 1.52295 12.4678 2.08154V2.17822H1.53223V2.08154ZM2.36475 9.39697C1.82764 9.39697 1.53223 9.1123 1.53223 8.55371V2.93555H12.4678V8.55371C12.4678 9.1123 12.167 9.39697 11.6353 9.39697H2.36475ZM2.97705 8.07568C2.97705 8.35498 3.17041 8.5376 3.45508 8.5376H10.561C10.8457 8.5376 11.0391 8.35498 11.0391 8.07568V7.27002C11.0391 6.98535 10.8457 6.80273 10.561 6.80273H3.45508C3.17041 6.80273 2.97705 6.98535 2.97705 7.27002V8.07568Z" fill="#007AFF"/>
</svg>
