<svg width="10" height="13" viewBox="0 0 10 13" fill="none" xmlns="http://www.w3.org/2000/svg">
<path d="M2.14795 12.0674H7.85205C8.96387 12.0674 9.51709 11.5034 9.51709 10.3862V5.50928C9.51709 4.81641 9.43652 4.51562 9.00684 4.0752L6.04736 1.06201C5.63916 0.643066 5.30078 0.551758 4.69922 0.551758H2.14795C1.0415 0.551758 0.48291 1.12109 0.48291 2.23828V10.3862C0.48291 11.5088 1.03613 12.0674 2.14795 12.0674ZM2.18555 11.2026C1.63232 11.2026 1.34766 10.9072 1.34766 10.3701V2.25439C1.34766 1.72266 1.63232 1.4165 2.19092 1.4165H4.58105V4.53711C4.58105 5.21387 4.91943 5.54688 5.59082 5.54688H8.65234V10.3701C8.65234 10.9072 8.36768 11.2026 7.80908 11.2026H2.18555ZM5.6875 4.73584C5.47266 4.73584 5.39209 4.6499 5.39209 4.43506V1.58301L8.48584 4.73584H5.6875Z" fill="#007AFF"/>
</svg>
